<svg preserveAspectRatio="none" width="100%" height="100%" overflow="visible" style="display: block;" viewBox="0 0 370.978 32.0001" fill="none" xmlns="http://www.w3.org/2000/svg">
<g id="lettering">
<path id="Vector" d="M0 31.2447C1.92289 31.2447 3.3648 29.7775 3.3648 28V4.00008C3.3648 2.22307 1.92289 0.755842 0 0.755842V0.445007H22.5468L23.0278 8.17787H22.5468C21.7778 5.11117 20.8639 1.19996 15.0477 1.19996H6.82663V17.9111C12.8358 17.1109 11.4419 11.2451 19.086 11.2451V11.5554C11.8744 11.5554 13.3648 18.8441 6.82663 19.7782V28C6.82663 29.7775 8.26906 31.2447 10.192 31.2447V31.5556H0V31.2447Z" fill="var(--fill-0, #202020)"/>
<path id="Vector_2" d="M42.1162 31.1113C48.6063 31.1113 51.4907 26.7997 51.4907 19.9998V3.99992C51.4907 2.2229 50.0488 0.75568 48.1259 0.75568V0.445366H55.7215V0.75568C53.7986 0.75568 52.3567 2.2229 52.3567 3.99992V19.9998C52.3567 27.3776 49.1348 32.0001 41.5397 32.0001C33.9436 32.0001 29.7129 27.3776 29.7129 19.9998V3.99992C29.7129 2.2229 28.2709 0.75568 26.3481 0.75568V0.445366H36.54V0.75568C34.6161 0.75568 33.1747 2.2229 33.1747 3.99992V19.9998C33.1747 26.5779 35.626 31.1113 42.1162 31.1113Z" fill="var(--fill-0, #202020)"/>
<path id="Vector_3" d="M74.5216 31.1113C76.733 31.1113 79.6173 30.4891 82.1172 28.3559V19.5557C82.1172 17.7777 80.6753 16.3115 78.7524 16.3115V16.0001H88.9443V16.3115C87.0214 16.3115 85.5785 17.7777 85.5785 19.5557V25.1112C83.3671 29.6441 79.4253 32.0001 74.4256 32.0001C66.1085 32.0001 59.3299 25.5996 59.3299 16.0001C59.3299 6.40017 65.916 0.000200272 74.7616 0.000200272C79.5688 0.000200272 82.6941 1.86677 84.4245 3.51154L85.0985 10.1338H84.617C82.8381 5.64521 80.4353 0.844712 74.4731 0.844712C67.503 0.844712 62.8872 7.20043 62.8872 16.0001C62.8872 24.8003 67.7904 31.1113 74.5216 31.1113Z" fill="var(--fill-0, #202020)"/>
<path id="Vector_4" d="M92.2164 31.2447C94.1393 31.2447 95.5812 29.7775 95.5812 28V4.00008C95.5812 2.22307 94.1393 0.755842 92.2164 0.755842V0.445007H102.408V0.755842C100.485 0.755842 99.0431 2.22307 99.0431 4.00008V28C99.0431 29.7775 100.485 31.2447 102.408 31.2447V31.5556H92.2164V31.2447Z" fill="var(--fill-0, #202020)"/>
<path id="Vector_5" d="M113.851 17.2444C115.005 14.222 117.889 12.9339 121.399 12.9339C124.043 12.9339 129.283 11.9118 129.283 7.11131C129.283 2.31134 124.524 1.20024 118.033 1.20024H113.851V17.2444ZM122.697 13.6441C126.351 13.6441 128.321 20.711 129.956 24.7112C131.927 29.556 132.985 31.2445 135.581 31.2445V31.5553C129.475 31.5553 128.13 30.1771 126.158 24.8445C124.62 20.7558 123.274 14.0002 119.236 14.0002C118.707 14.0002 118.129 14.134 117.504 14.4001C115.245 15.3336 113.851 17.3335 113.851 20.4449V27.9997C113.851 29.7778 115.293 31.2445 117.216 31.2445V31.5553H107.024V31.2445C108.947 31.2445 110.389 29.7778 110.389 27.9997V3.99984C110.389 2.22282 108.947 0.755598 107.024 0.755598V0.445284H118.226C126.687 0.445284 132.841 1.55586 132.841 7.11131C132.841 12.3117 127.168 13.467 122.697 13.6441Z" fill="var(--fill-0, #202020)"/>
<path id="Vector_6" d="M160.104 18.8888C161.257 15.9554 164.045 14.7115 167.122 14.7115C171.209 14.7115 175.488 12.8002 175.488 8.0002C175.488 3.20023 171.689 1.19984 164.238 1.19984H160.104V18.8888ZM153.277 31.2446C155.2 31.2446 156.642 29.7774 156.642 27.9999V3.99996C156.642 2.22294 155.2 0.75572 153.277 0.75572V0.444885H164.478C173.853 0.489662 179.046 2.44475 179.046 8.0002C179.046 13.7332 173.18 15.4665 167.122 15.4665C163.613 15.4665 160.536 17.2445 160.104 21.289V27.9999C160.104 29.7774 161.546 31.2446 163.469 31.2446V31.5554H153.277V31.2446Z" fill="var(--fill-0, #202020)"/>
<path id="Vector_7" d="M196.162 20.2669L191.451 6.04508C188.231 12.8892 181.884 18.7117 181.884 24.4885C181.884 26.7117 182.797 29.1999 185.826 29.1999C191.211 29.1999 189.865 20.9339 196.162 20.2669ZM196.499 31.2446C198.422 31.2446 199.239 29.6441 198.71 27.9998L196.258 20.5778C190.297 21.378 191.403 32.0001 184.48 32.0001C181.163 32.0001 178.567 29.6888 178.567 26.0447C178.567 18.4446 188.951 14.0893 192.461 0.445366H193.134L202.316 27.9998C202.845 29.6441 204.912 31.2446 206.835 31.2446V31.5554H196.499V31.2446Z" fill="var(--fill-0, #202020)"/>
<path id="Vector_8" d="M216.934 17.2444C218.088 14.222 220.972 12.9339 224.482 12.9339C227.126 12.9339 232.366 11.9118 232.366 7.11131C232.366 2.31134 227.607 1.20024 221.116 1.20024H216.934V17.2444ZM225.78 13.6441C229.434 13.6441 231.404 20.711 233.039 24.7112C235.01 29.556 236.068 31.2445 238.664 31.2445V31.5553C232.558 31.5553 231.213 30.1771 229.241 24.8445C227.704 20.7558 226.357 14.0002 222.319 14.0002C221.79 14.0002 221.212 14.134 220.587 14.4001C218.328 15.3336 216.934 17.3335 216.934 20.4449V27.9997C216.934 29.7778 218.376 31.2445 220.299 31.2445V31.5553H210.107V31.2445C212.031 31.2445 213.472 29.7778 213.472 27.9997V3.99984C213.472 2.22282 212.031 0.755598 210.107 0.755598V0.445284H221.309C229.77 0.445284 235.924 1.55586 235.924 7.11131C235.924 12.3117 230.251 13.467 225.78 13.6441Z" fill="var(--fill-0, #202020)"/>
<path id="Vector_9" d="M259.627 20.2669L254.915 6.04508C251.695 12.8892 245.349 18.7117 245.349 24.4885C245.349 26.7117 246.262 29.1999 249.291 29.1999C254.675 29.1999 253.329 20.9339 259.627 20.2669ZM259.964 31.2446C261.887 31.2446 262.703 29.6441 262.175 27.9998L259.723 20.5778C253.762 21.378 254.868 32.0001 247.944 32.0001C244.627 32.0001 242.032 29.6888 242.032 26.0447C242.032 18.4446 252.416 14.0893 255.925 0.445366H256.598L265.78 27.9998C266.309 29.6441 268.377 31.2446 270.3 31.2446V31.5554H259.964V31.2446Z" fill="var(--fill-0, #202020)"/>
<path id="Vector_10" d="M299.293 0C304.582 0 307.322 1.86709 309.774 3.51134L310.447 10.1336H309.966C308.14 6.13391 306.072 0.845034 300.062 0.845034C295.592 0.845034 293.14 3.77844 293.14 6.489C293.14 13.822 312.13 14.7561 312.13 24.4451C312.13 29.9557 306.312 31.9999 300.687 31.9999C295.544 31.9999 291.602 30.2218 288.669 28.4885L287.996 21.8667H288.477C290.352 25.8665 294.054 31.1559 300.111 31.1559C304.534 31.1559 308.62 28.3557 308.62 24.8001C308.62 17.3333 289.679 17.111 289.679 6.93313C289.679 1.91135 293.813 0 299.293 0Z" fill="var(--fill-0, #202020)"/>
<path id="Vector_11" d="M332.179 31.1113C338.669 31.1113 341.554 26.7997 341.554 19.9998V3.99992C341.554 2.2229 340.112 0.75568 338.189 0.75568V0.445366H345.785V0.75568C343.862 0.75568 342.42 2.2229 342.42 3.99992V19.9998C342.42 27.3776 339.198 32.0001 331.603 32.0001C324.007 32.0001 319.776 27.3776 319.776 19.9998V3.99992C319.776 2.2229 318.334 0.75568 316.411 0.75568V0.445366H326.603V0.75568C324.679 0.75568 323.238 2.2229 323.238 3.99992V19.9998C323.238 26.5779 325.689 31.1113 332.179 31.1113Z" fill="var(--fill-0, #202020)"/>
<path id="Vector_12" d="M360.065 0.445068V0.755903C358.142 0.755903 356.7 2.22313 356.7 4.00014V30.7996H362.998C368.815 30.7996 369.728 26.8889 370.497 23.8228H370.978L370.497 31.5556H349.873V31.2448C351.796 31.2448 353.238 29.7776 353.238 28V4.00014C353.238 2.22313 351.796 0.755903 349.873 0.755903V0.445068H360.065Z" fill="var(--fill-0, #202020)"/>
</g>
</svg>
