<svg preserveAspectRatio="none" width="100%" height="100%" overflow="visible" style="display: block;" viewBox="0 0 120.235 120" fill="none" xmlns="http://www.w3.org/2000/svg">
<g id="symbol">
<path id="Vector" d="M48.1646 109.065C48.1355 108.994 48.0983 108.925 48.0563 108.861C48.0138 108.795 47.9633 108.734 47.9076 108.679C47.8518 108.623 47.7911 108.575 47.7274 108.531C47.6611 108.488 47.5925 108.451 47.5206 108.422C47.4493 108.391 47.3724 108.37 47.2982 108.353C47.1445 108.322 46.9855 108.322 46.8318 108.353C46.7549 108.37 46.6807 108.391 46.6091 108.422C46.5375 108.451 46.4662 108.488 46.4026 108.531C46.3363 108.575 46.2753 108.623 46.2222 108.679C46.1667 108.734 46.1162 108.795 46.074 108.861C46.0288 108.925 45.9918 108.994 45.9625 109.065C45.9335 109.136 45.9097 109.213 45.8965 109.287C45.8804 109.364 45.8727 109.443 45.8727 109.52C45.8727 109.835 45.9998 110.142 46.2222 110.364C46.4422 110.583 46.7496 110.71 47.065 110.71C47.3777 110.71 47.6852 110.583 47.9076 110.364C48.1302 110.142 48.2575 109.835 48.2575 109.52C48.2575 109.443 48.2494 109.364 48.2338 109.287C48.2177 109.213 48.1965 109.136 48.1646 109.065Z" fill="var(--fill-0, #202020)"/>
<path id="Vector_2" d="M111.484 86.3256C105.877 81.9377 99.0021 82.6481 88.087 83.7788L86.9718 83.894C81.5994 84.4478 78.1377 83.6638 77.2231 81.6867C76.3424 79.7829 77.894 76.8557 79.8998 74.9094C81.5725 73.7466 82.6861 72.6083 83.4256 71.4998C83.7875 72.3552 84.2637 73.0382 84.8723 73.5974C86.9782 75.5315 90.2954 75.6425 96.069 75.1625C105.093 74.4135 112.67 76.3862 114.873 78.2987C114.394 79.7309 113.852 81.1695 113.248 82.5846C112.706 83.8505 112.116 85.1003 111.484 86.3256ZM105.12 96.0889C101.288 92.3903 95.4668 92.897 91.5027 93.2458L91.3875 93.2558C72.0554 94.9498 65.3322 94.0786 63.7231 89.6674C62.6597 86.7529 64.5435 82.2943 69.5245 79.8269C71.6755 79.059 73.5741 78.2924 75.2265 77.5231C74.5068 79.2625 74.3184 81.0865 75.0577 82.6848C76.031 84.7879 78.9301 87.1156 87.2167 86.2618L88.3329 86.1463C99.2034 85.0201 105.412 84.3814 110.33 88.458C110.155 88.7651 109.978 89.0706 109.798 89.3733C108.406 91.7113 106.833 93.9663 105.12 96.0889ZM94.4776 106.303C91.344 102.85 84.7426 103.676 79.3472 104.355C77.8108 104.548 76.3588 104.73 75.1943 104.782C60.3114 105.445 50.5658 102.588 48.4461 96.9435C46.9744 93.0249 49.4644 88.7672 52.585 86.2866C54.1838 85.0159 58.449 83.3433 62.1534 82.1794C62.5528 82.0642 62.9455 81.949 63.333 81.8341C61.1613 84.6835 60.5689 87.979 61.4823 90.482C62.6354 93.6431 65.3504 95.3645 70.2846 96.0636C74.6578 96.6831 81.0315 96.5526 91.5962 95.6268L91.7116 95.6168C95.4676 95.2864 100.519 94.8454 103.58 97.9163C100.851 101.03 97.8006 103.843 94.4776 106.303ZM85.6274 111.703C77.6576 115.628 69.0747 117.618 60.1175 117.618C59.8388 117.618 59.5602 117.616 59.2815 117.611C59.2741 117.611 59.2662 117.611 59.2585 117.611C59.2567 117.611 59.2551 117.611 59.2535 117.611C42.649 117.301 24.4896 108.24 23.5778 99.6641C22.9994 94.2227 29.8387 89.6928 42.8365 86.9082C45.3952 86.3601 47.8146 85.8192 50.1088 85.2832C46.8122 88.3836 44.4892 93.1896 46.2129 97.7789C47.0336 99.9649 49.1828 102.994 54.7602 105.012C59.7599 106.822 66.6711 107.544 75.3005 107.16C76.5614 107.104 78.0593 106.915 79.6451 106.716C84.3295 106.127 90.0466 105.41 92.5064 107.7C90.3157 109.185 88.0054 110.531 85.6274 111.703ZM3.72001 47.6714L38.526 58.9582C38.0981 60.5367 37.8302 62.1796 37.7428 63.8694C36.7214 63.8868 35.6792 63.8973 34.6155 63.9005H2.51663C2.43 62.6003 2.38482 61.2933 2.38482 60.0008C2.38482 55.7697 2.84864 51.6452 3.72001 47.6714ZM23.6341 15.3786L46.4945 46.7828C45.1929 47.8336 44.0053 49.0193 42.9528 50.3187L12.1447 27.9787C15.3348 23.2336 19.2125 18.9865 23.6341 15.3786ZM108.85 29.1384L79.6607 50.3044C78.6029 48.9929 77.4132 47.8069 76.115 46.7609L98.0626 16.6113C102.228 20.2442 105.867 24.4629 108.85 29.1384ZM109.014 63.0764C105.735 61.6692 102.737 60.3859 98.0291 60.7329C103.726 57.3143 109.66 53.9526 117.73 56.3312C117.807 57.5452 117.85 58.7679 117.85 60.0008C117.85 61.655 117.779 63.334 117.637 64.99C117.613 65.2739 117.581 65.557 117.552 65.8404C113.965 65.198 111.45 64.1219 109.014 63.0764ZM90.6887 53.0516C94.7533 50.6163 97.9641 48.6927 102.033 48.0249C105.84 47.401 110.196 49.4382 114.807 51.5967C115.653 51.9926 116.524 52.3968 117.399 52.7914C117.442 53.128 117.479 53.4663 117.516 53.8047C108.662 51.5643 102.117 55.4964 96.3017 58.9922C93.9802 60.3878 91.7296 61.7386 89.4288 62.6694C88.8847 62.8547 88.3279 63.0514 87.7494 63.267C86.4261 63.6669 85.0772 63.9018 83.6802 63.9018H63.0076C77.0899 61.1968 84.6205 56.6871 90.6887 53.0516ZM82.5643 54.9056C82.1171 53.9748 81.6163 53.0811 81.0622 52.2304L110.093 31.179C113.418 36.8992 115.785 43.2392 116.975 49.9799C116.587 49.8001 116.199 49.6196 115.819 49.4419C110.865 47.1221 106.185 44.9322 101.646 45.6761C97.1273 46.4179 93.5748 48.5464 89.4612 51.0107C87.4053 52.2425 85.1757 53.5775 82.5643 54.9056ZM52.884 43.1006C51.309 43.7035 49.8149 44.4706 48.4221 45.3806L25.5115 13.9079C30.1002 10.4674 35.2183 7.69498 40.7182 5.73077L52.884 43.1006ZM60.1046 41.5787C58.4001 41.6639 56.743 41.9328 55.1511 42.3624L42.9786 4.97208C48.3917 3.28915 54.1439 2.38178 60.1046 2.38019V41.5787ZM67.445 42.3556C65.8457 41.9275 64.1862 41.6662 62.4894 41.5819V2.43266C68.39 2.67202 74.0646 3.79872 79.3836 5.68358L67.445 42.3556ZM69.7136 43.0892L81.6166 6.52689C86.9216 8.65903 91.8376 11.5556 96.2293 15.0797L74.1858 45.3611C72.7846 44.4498 71.2868 43.6866 69.7136 43.0892ZM61.2974 43.9289C69.5173 43.9289 76.9027 48.612 80.4217 55.9495C72.2936 59.7353 60.5391 63.2267 40.1369 63.8156C40.8009 52.7429 50.0462 43.9289 61.2974 43.9289ZM39.265 56.6956L4.27837 45.3498C5.72316 39.8686 7.95797 34.7041 10.8549 29.9856L41.5479 52.2423C40.6366 53.6323 39.8688 55.1236 39.265 56.6956ZM115.618 75.9061C111.874 73.488 103.799 72.1327 95.8714 72.7904C90.9018 73.2033 87.9343 73.1748 86.4872 71.8459C85.4922 70.9319 85.0072 69.2216 84.9143 66.2287C86.1388 66.1272 87.3252 65.8802 88.4816 65.527C88.5056 65.5196 88.5297 65.517 88.5534 65.508C88.5722 65.5009 88.5899 65.4948 88.6086 65.4877C89.1522 65.3179 89.6895 65.1247 90.2209 64.9125C99.6928 61.6719 103.251 63.1945 108.072 65.2628C110.548 66.3257 113.33 67.5162 117.269 68.2075C116.896 70.8117 116.343 73.3859 115.618 75.9061ZM120.235 60.0008C120.235 58.4431 120.174 56.8946 120.057 55.3574C120.057 55.3516 120.056 55.3461 120.056 55.3403C118.965 41.0699 112.874 27.801 102.627 17.574C91.2721 6.24113 76.1755 0 60.1175 0C44.0597 0 28.9631 6.24113 17.6082 17.574C6.25327 28.9067 0 43.9742 0 60.0008C0 61.7222 0.0744836 63.4692 0.221868 65.1927C0.223981 65.2167 0.231378 65.2383 0.234547 65.2615C0.240358 65.3011 0.246965 65.3404 0.256738 65.3786C0.266775 65.4194 0.279447 65.4585 0.293446 65.4972C0.305332 65.5296 0.317481 65.5615 0.332008 65.5924C0.351818 65.6348 0.374006 65.6749 0.398306 65.7144C0.413098 65.7379 0.427626 65.7611 0.444002 65.7838C0.474377 65.8259 0.507391 65.8655 0.542785 65.9032C0.558104 65.9193 0.572898 65.9351 0.588746 65.9504C0.629686 65.9894 0.673264 66.025 0.719223 66.0579C0.734014 66.0685 0.748809 66.0787 0.764129 66.0888C0.814049 66.1212 0.865819 66.1489 0.92023 66.1734C0.935814 66.1805 0.951134 66.1874 0.966982 66.1937C1.02218 66.2158 1.07924 66.233 1.13787 66.2467C1.15689 66.2511 1.1759 66.2556 1.19519 66.2591C1.25039 66.2691 1.30638 66.2741 1.3637 66.2759C1.37928 66.2767 1.39408 66.2807 1.40993 66.2807H33.3173C33.3218 66.2807 33.3258 66.282 33.3303 66.282H33.9288C33.9322 66.282 33.9356 66.283 33.9391 66.283C34.0397 66.283 34.1374 66.282 34.2375 66.282H82.5014C82.4473 68.5067 82.0046 70.5513 78.5397 72.9549C78.5131 72.971 78.4882 72.9905 78.4626 73.0087C78.2896 73.1273 78.1119 73.2465 77.9238 73.3672C72.2627 76.9959 60.622 80.6639 42.336 84.5812C23.9436 88.5212 20.6935 95.0948 21.2062 99.9153C21.7252 104.797 26.5421 109.883 34.4216 113.87C41.8434 117.626 50.8162 119.831 59.1912 119.985C59.2065 119.986 59.221 119.99 59.2364 119.991C59.4728 119.995 59.7092 119.996 59.9455 119.997C60.006 119.997 60.0668 120 60.1273 120C60.1328 120 60.1381 119.998 60.1436 119.998C69.4606 119.994 78.3895 117.922 86.6834 113.838C89.3833 112.506 92.0011 110.962 94.4633 109.249C94.6086 109.148 94.7491 109.041 94.8936 108.938C94.9343 108.911 94.9771 108.884 95.0132 108.852C99.084 105.952 102.78 102.554 106.019 98.7348C106.048 98.704 106.076 98.6718 106.101 98.6386C106.235 98.4796 106.374 98.3252 106.506 98.1651L106.779 97.8327V97.8306C108.641 95.5487 110.345 93.1142 111.848 90.5885C113.191 88.3301 114.4 85.9515 115.442 83.5181C116.147 81.8657 116.776 80.182 117.314 78.5136C117.361 78.4121 117.398 78.3069 117.415 78.1975C118.531 74.7017 119.32 71.0898 119.773 67.43C119.776 67.4137 119.782 67.3989 119.785 67.3826C119.787 67.3628 119.785 67.3441 119.787 67.3246C119.874 66.6152 119.952 65.905 120.013 65.1927C120.161 63.4692 120.235 61.7222 120.235 60.0008Z" fill="var(--fill-0, #202020)"/>
<path id="Vector_3" d="M55.0697 73.1555C55.0697 72.4983 54.5359 71.9652 53.8771 71.9652H2.79576C2.13728 71.9652 1.60348 72.4983 1.60348 73.1555C1.60348 73.8127 2.13728 74.3457 2.79576 74.3457H53.8771C54.5359 74.3457 55.0697 73.8127 55.0697 73.1555Z" fill="var(--fill-0, #202020)"/>
<path id="Vector_4" d="M26.5785 80.1851C26.5785 79.5279 26.0446 78.9949 25.3859 78.9949H5.57539C4.91691 78.9949 4.38284 79.5279 4.38284 80.1851C4.38284 80.8423 4.91691 81.3754 5.57539 81.3754H25.3859C26.0446 81.3754 26.5785 80.8423 26.5785 80.1851Z" fill="var(--fill-0, #202020)"/>
<path id="Vector_5" d="M30.1503 78.9725C29.4919 78.9725 28.9578 79.5052 28.9578 80.1627C28.9578 80.8199 29.4919 81.3527 30.1503 81.3527H33.0188C33.6775 81.3527 34.2113 80.8199 34.2113 80.1627C34.2113 79.5052 33.6775 78.9725 33.0188 78.9725H30.1503Z" fill="var(--fill-0, #202020)"/>
<path id="Vector_6" d="M35.0398 96.1906C35.0105 96.1192 34.9735 96.0504 34.9312 95.9842C34.8861 95.9207 34.8383 95.86 34.7825 95.8044C34.7268 95.7488 34.666 95.6987 34.5998 95.6563C34.5361 95.6138 34.4674 95.5769 34.3956 95.5476C34.3216 95.516 34.2474 95.4949 34.1705 95.4791C34.0168 95.4472 33.8605 95.4472 33.7067 95.4791C33.6299 95.4949 33.5556 95.516 33.4817 95.5476C33.4101 95.5769 33.3412 95.6138 33.2775 95.6563C33.2112 95.6987 33.1505 95.7488 33.0945 95.8044C33.039 95.86 32.9912 95.9207 32.9463 95.9842C32.9038 96.0504 32.8668 96.1192 32.8375 96.1906C32.8087 96.2618 32.7847 96.3361 32.7688 96.4128C32.7556 96.4895 32.7477 96.5686 32.7477 96.6453C32.7477 96.7221 32.7556 96.8014 32.7688 96.8781C32.7847 96.9548 32.8087 97.0289 32.8375 97.1003C32.8668 97.1718 32.9038 97.2406 32.9489 97.3065C32.9912 97.3727 33.0416 97.4333 33.0974 97.4863C33.1505 97.5419 33.2112 97.5923 33.2775 97.6347C33.3412 97.6795 33.4101 97.7138 33.4817 97.7457C33.5556 97.7747 33.6299 97.7958 33.7067 97.8118C33.7836 97.8277 33.8605 97.8356 33.94 97.8356C34.0168 97.8356 34.0937 97.8277 34.1705 97.8118C34.2474 97.7958 34.3216 97.7747 34.3956 97.7457C34.4674 97.7138 34.5361 97.6795 34.5998 97.6347C34.666 97.5923 34.7268 97.5419 34.7825 97.4863C34.8356 97.4333 34.8861 97.3727 34.9312 97.3065C34.9735 97.2406 35.0105 97.1718 35.0398 97.1003C35.0688 97.0289 35.0926 96.9548 35.1087 96.8781C35.1219 96.8014 35.1299 96.7221 35.1299 96.6453C35.1299 96.5686 35.1219 96.4895 35.1087 96.4128C35.0926 96.3361 35.0688 96.2618 35.0398 96.1906Z" fill="var(--fill-0, #202020)"/>
<path id="Vector_7" d="M38.2888 104.204C38.2571 104.133 38.2198 104.061 38.1776 103.998C38.1351 103.931 38.0846 103.871 38.0289 103.818C37.976 103.762 37.9124 103.712 37.8487 103.67C37.7827 103.627 37.7138 103.59 37.6422 103.559C37.5706 103.53 37.4964 103.509 37.4195 103.493C37.0326 103.413 36.6195 103.54 36.3437 103.818C36.2883 103.871 36.2378 103.931 36.1953 103.998C36.1528 104.061 36.1158 104.133 36.0867 104.204C36.055 104.275 36.0339 104.35 36.0178 104.426C36.0019 104.503 35.994 104.582 35.994 104.659C35.994 104.971 36.1213 105.278 36.3437 105.5C36.3995 105.555 36.4602 105.606 36.5239 105.648C36.5902 105.69 36.6591 105.727 36.7307 105.756C36.802 105.788 36.8765 105.809 36.9533 105.825C37.0302 105.841 37.1094 105.849 37.1863 105.849C37.2658 105.849 37.3427 105.841 37.4195 105.825C37.4964 105.809 37.5706 105.788 37.6422 105.756C37.7138 105.727 37.7827 105.69 37.8487 105.648C37.9124 105.606 37.976 105.555 38.0289 105.5C38.2518 105.278 38.3788 104.971 38.3788 104.659C38.3788 104.582 38.3709 104.503 38.3551 104.426C38.339 104.35 38.3181 104.275 38.2888 104.204Z" fill="var(--fill-0, #202020)"/>
</g>
</svg>
