<svg preserveAspectRatio="none" width="100%" height="100%" overflow="visible" style="display: block;" viewBox="0 0 185.489 16" fill="none" xmlns="http://www.w3.org/2000/svg">
<g id="lettering">
<path id="Vector" d="M0 15.6224C0.961446 15.6224 1.6824 14.8887 1.6824 14V2.00004C1.6824 1.11153 0.961446 0.37792 0 0.37792V0.222502H11.2734L11.5139 4.08893H11.2734C10.8889 2.55558 10.4319 0.599981 7.52385 0.599981H3.41332V8.95555C6.4179 8.55543 5.72094 5.62254 9.54299 5.62254V5.7777C5.93718 5.7777 6.68239 9.42207 3.41332 9.8891V14C3.41332 14.8887 4.13453 15.6224 5.09598 15.6224V15.7778H0V15.6224Z" fill="var(--fill-0, #202020)"/>
<path id="Vector_2" d="M21.0581 15.5556C24.3032 15.5556 25.7453 13.3998 25.7453 9.99991V1.99995C25.7453 1.11144 25.0244 0.377826 24.0629 0.377826V0.222669H27.8607V0.377826C26.8993 0.377826 26.1783 1.11144 26.1783 1.99995V9.99991C26.1783 13.6888 24.5674 16 20.7699 16C16.9718 16 14.8564 13.6888 14.8564 9.99991V1.99995C14.8564 1.11144 14.1355 0.377826 13.174 0.377826V0.222669H18.27V0.377826C17.308 0.377826 16.5873 1.11144 16.5873 1.99995V9.99991C16.5873 13.2889 17.813 15.5556 21.0581 15.5556Z" fill="var(--fill-0, #202020)"/>
<path id="Vector_3" d="M37.2607 15.5556C38.3664 15.5556 39.8085 15.2445 41.0585 14.178V9.77784C41.0585 8.88882 40.3375 8.15572 39.3761 8.15572V8.00005H44.472V8.15572C43.5106 8.15572 42.7891 8.88882 42.7891 9.77784V12.5556C41.6834 14.822 39.7126 16 37.2127 16C33.0542 16 29.6648 12.7998 29.6648 8.00005C29.6648 3.20007 32.9579 8.6289e-05 37.3807 8.6289e-05C39.7843 8.6289e-05 41.347 0.933372 42.2122 1.75576L42.5492 5.0669H42.3084C41.4189 2.82259 40.2175 0.422342 37.2364 0.422342C33.7514 0.422342 31.4435 3.6002 31.4435 8.00005C31.4435 12.4002 33.8951 15.5556 37.2607 15.5556Z" fill="var(--fill-0, #202020)"/>
<path id="Vector_4" d="M46.1082 15.6224C47.0696 15.6224 47.7906 14.8887 47.7906 14V2.00004C47.7906 1.11153 47.0696 0.37792 46.1082 0.37792V0.222502H51.2042V0.37792C50.2427 0.37792 49.5215 1.11153 49.5215 2.00004V14C49.5215 14.8887 50.2427 15.6224 51.2042 15.6224V15.7778H46.1082V15.6224Z" fill="var(--fill-0, #202020)"/>
<path id="Vector_5" d="M56.9254 8.62221C57.5024 7.11099 58.9446 6.46693 60.6992 6.46693C62.0214 6.46693 64.6412 5.9559 64.6412 3.55565C64.6412 1.15567 62.2619 0.600119 59.0166 0.600119H56.9254V8.62221ZM61.3482 6.82202C63.1753 6.82202 64.1605 10.3555 64.978 12.3556C65.9634 14.778 66.4921 15.6222 67.7903 15.6222V15.7777C64.7375 15.7777 64.0648 15.0886 63.0791 12.4223C62.3101 10.3779 61.6369 7.00009 59.6178 7.00009C59.3533 7.00009 59.0645 7.06699 58.7521 7.20002C57.6224 7.66679 56.9254 8.66672 56.9254 10.2225V13.9999C56.9254 14.8889 57.6466 15.6222 58.6081 15.6222V15.7777H53.5121V15.6222C54.4736 15.6222 55.1945 14.8889 55.1945 13.9999V1.99992C55.1945 1.11141 54.4736 0.377797 53.5121 0.377797V0.22264H59.1128C63.3433 0.22264 66.4202 0.777926 66.4202 3.55565C66.4202 6.15584 63.5841 6.73351 61.3482 6.82202Z" fill="var(--fill-0, #202020)"/>
<path id="Vector_6" d="M80.0518 9.44441C80.6288 7.9777 82.0227 7.35577 83.5611 7.35577C85.6045 7.35577 87.7439 6.4001 87.7439 4.00011C87.7439 1.60012 85.8447 0.599933 82.1189 0.599933H80.0518V9.44441ZM76.6385 15.6223C77.5999 15.6223 78.3209 14.8887 78.3209 13.9999V1.99999C78.3209 1.11148 77.5999 0.377871 76.6385 0.377871V0.222453H82.2392C86.9267 0.244842 89.5228 1.22238 89.5228 4.00011C89.5228 6.86661 86.5899 7.73325 83.5611 7.73325C81.8064 7.73325 80.268 8.62228 80.0518 10.6445V13.9999C80.0518 14.8887 80.773 15.6223 81.7345 15.6223V15.7777H76.6385V15.6223Z" fill="var(--fill-0, #202020)"/>
<path id="Vector_7" d="M98.0811 10.1335L95.7255 3.02253C94.1153 6.44457 90.9422 9.35585 90.9422 12.2442C90.9422 13.3558 91.3987 14.5999 92.9131 14.5999C95.6055 14.5999 94.9323 10.4669 98.0811 10.1335ZM98.2496 15.6223C99.211 15.6223 99.6195 14.822 99.355 13.9999L98.1291 10.2889C95.1485 10.689 95.7017 16 92.2399 16C90.5815 16 89.2836 14.8444 89.2836 13.0223C89.2836 9.2223 94.4755 7.04463 96.2305 0.222669H96.5669L101.158 13.9999C101.422 14.822 102.456 15.6223 103.418 15.6223V15.7777H98.2496V15.6223Z" fill="var(--fill-0, #202020)"/>
<path id="Vector_8" d="M108.467 8.62221C109.044 7.11099 110.486 6.46693 112.241 6.46693C113.563 6.46693 116.183 5.9559 116.183 3.55565C116.183 1.15567 113.803 0.600119 110.558 0.600119H108.467V8.62221ZM112.89 6.82202C114.717 6.82202 115.702 10.3555 116.52 12.3556C117.505 14.778 118.034 15.6222 119.332 15.6222V15.7777C116.279 15.7777 115.606 15.0886 114.621 12.4223C113.852 10.3779 113.179 7.00009 111.159 7.00009C110.895 7.00009 110.606 7.06699 110.294 7.20002C109.164 7.66679 108.467 8.66672 108.467 10.2225V13.9999C108.467 14.8889 109.188 15.6222 110.15 15.6222V15.7777H105.054V15.6222C106.015 15.6222 106.736 14.8889 106.736 13.9999V1.99992C106.736 1.11141 106.015 0.377797 105.054 0.377797V0.22264H110.654C114.885 0.22264 117.962 0.777926 117.962 3.55565C117.962 6.15584 115.126 6.73351 112.89 6.82202Z" fill="var(--fill-0, #202020)"/>
<path id="Vector_9" d="M129.813 10.1335L127.458 3.02253C125.848 6.44457 122.674 9.35585 122.674 12.2442C122.674 13.3558 123.131 14.5999 124.645 14.5999C127.338 14.5999 126.665 10.4669 129.813 10.1335ZM129.982 15.6223C130.943 15.6223 131.352 14.822 131.087 13.9999L129.861 10.2889C126.881 10.689 127.434 16 123.972 16C122.314 16 121.016 14.8444 121.016 13.0223C121.016 9.2223 126.208 7.04463 127.963 0.222669H128.299L132.89 13.9999C133.155 14.822 134.188 15.6223 135.15 15.6223V15.7777H129.982V15.6223Z" fill="var(--fill-0, #202020)"/>
<path id="Vector_10" d="M149.647 7.134e-06C152.291 7.134e-06 153.661 0.933553 154.887 1.75568L155.223 5.06682H154.983C154.07 3.06696 153.036 0.422524 150.031 0.422524C147.796 0.422524 146.57 1.88923 146.57 3.24451C146.57 6.91101 156.065 7.37804 156.065 12.2225C156.065 14.9779 153.156 15.9999 150.344 15.9999C147.772 15.9999 145.801 15.1109 144.335 14.2443L143.998 10.9334H144.238C145.176 12.9332 147.027 15.5779 150.055 15.5779C152.267 15.5779 154.31 14.1779 154.31 12.4001C154.31 8.66667 144.839 8.55551 144.839 3.46657C144.839 0.955681 146.907 7.134e-06 149.647 7.134e-06Z" fill="var(--fill-0, #202020)"/>
<path id="Vector_11" d="M166.09 15.5556C169.335 15.5556 170.777 13.3998 170.777 9.99991V1.99995C170.777 1.11144 170.056 0.377826 169.094 0.377826V0.222669H172.892V0.377826C171.931 0.377826 171.21 1.11144 171.21 1.99995V9.99991C171.21 13.6888 169.599 16 165.801 16C162.003 16 159.888 13.6888 159.888 9.99991V1.99995C159.888 1.11144 159.167 0.377826 158.205 0.377826V0.222669H163.301V0.377826C162.339 0.377826 161.619 1.11144 161.619 1.99995V9.99991C161.619 13.2889 162.844 15.5556 166.09 15.5556Z" fill="var(--fill-0, #202020)"/>
<path id="Vector_12" d="M180.033 0.222545V0.377962C179.071 0.377962 178.35 1.11157 178.35 2.00008V15.3998H181.499C184.407 15.3998 184.864 13.4445 185.249 11.9114H185.489L185.249 15.7778H174.937V15.6224C175.898 15.6224 176.619 14.8888 176.619 14V2.00008C176.619 1.11157 175.898 0.377962 174.937 0.377962V0.222545H180.033Z" fill="var(--fill-0, #202020)"/>
</g>
</svg>
