<svg preserveAspectRatio="none" width="100%" height="100%" overflow="visible" style="display: block;" viewBox="0 0 40.0784 40" fill="none" xmlns="http://www.w3.org/2000/svg">
<g id="symbol">
<path id="Vector" d="M16.0548 36.355C16.0451 36.3312 16.0327 36.3082 16.0187 36.2871C16.0045 36.265 15.9877 36.2448 15.9691 36.2263C15.9505 36.2078 15.9303 36.1918 15.9091 36.1769C15.887 36.1628 15.8641 36.1504 15.8401 36.1408C15.8164 36.1302 15.7907 36.1232 15.766 36.1178C15.7148 36.1072 15.6618 36.1072 15.6105 36.1178C15.5849 36.1232 15.5602 36.1302 15.5363 36.1408C15.5124 36.1504 15.4887 36.1628 15.4674 36.1769C15.4453 36.1918 15.425 36.2078 15.4073 36.2263C15.3888 36.2448 15.372 36.265 15.3579 36.2871C15.3429 36.3082 15.3305 36.3312 15.3208 36.355C15.3111 36.3787 15.3032 36.4043 15.2988 36.4291C15.2934 36.4546 15.2908 36.481 15.2908 36.5066C15.2908 36.6116 15.3332 36.7139 15.4073 36.7879C15.4807 36.8611 15.5831 36.9033 15.6883 36.9033C15.7925 36.9033 15.895 36.8611 15.9691 36.7879C16.0433 36.7139 16.0858 36.6116 16.0858 36.5066C16.0858 36.481 16.083 36.4546 16.0779 36.4291C16.0725 36.4043 16.0654 36.3787 16.0548 36.355Z" fill="var(--fill-0, #202020)"/>
<path id="Vector_2" d="M37.1615 28.7752C35.2925 27.3126 33.0007 27.5494 29.3623 27.9263L28.9906 27.9647C27.1998 28.1493 26.0459 27.8879 25.741 27.2289C25.4475 26.5943 25.9647 25.6186 26.6333 24.9698C27.1908 24.5822 27.562 24.2028 27.8085 23.8333C27.9292 24.1184 28.0879 24.3461 28.2908 24.5325C28.9927 25.1772 30.0985 25.2142 32.023 25.0542C35.0311 24.8045 37.5567 25.4621 38.2909 26.0996C38.1314 26.577 37.9506 27.0565 37.7493 27.5282C37.5688 27.9502 37.3719 28.3668 37.1615 28.7752ZM35.0401 32.0296C33.7627 30.7968 31.8223 30.9657 30.5009 31.0819L30.4625 31.0853C24.0185 31.6499 21.7774 31.3595 21.241 29.8891C20.8866 28.9176 21.5145 27.4314 23.1748 26.609C23.8919 26.353 24.5247 26.0975 25.0755 25.841C24.8356 26.4208 24.7728 27.0288 25.0192 27.5616C25.3437 28.2626 26.31 29.0385 29.0722 28.7539L29.4443 28.7154C33.0678 28.34 35.1373 28.1271 36.7765 29.486C36.7183 29.5884 36.6593 29.6902 36.5992 29.7911C36.1354 30.5704 35.611 31.3221 35.0401 32.0296ZM31.4925 35.4342C30.448 34.2832 28.2475 34.5587 26.4491 34.7849C25.9369 34.8493 25.4529 34.9101 25.0648 34.9274C20.1038 35.1484 16.8553 34.196 16.1487 32.3145C15.6581 31.0083 16.4881 29.5891 17.5284 28.7622C18.0613 28.3386 19.483 27.7811 20.7178 27.3931C20.8509 27.3547 20.9818 27.3163 21.111 27.278C20.3871 28.2278 20.1896 29.3263 20.4941 30.1607C20.8785 31.2144 21.7835 31.7882 23.4282 32.0212C24.8859 32.2277 27.0105 32.1842 30.5321 31.8756L30.5705 31.8723C31.8225 31.7621 33.5062 31.6151 34.5267 32.6388C33.6168 33.6768 32.6002 34.6144 31.4925 35.4342ZM28.5425 37.2345C25.8859 38.5428 23.0249 39.2062 20.0392 39.2062C19.9463 39.2062 19.8534 39.2053 19.7605 39.2036C19.758 39.2035 19.7554 39.2035 19.7529 39.2035C19.7522 39.2035 19.7517 39.2037 19.7512 39.2037C14.2163 39.1003 8.16319 36.0798 7.85927 33.2214C7.66645 31.4076 9.94624 29.8976 14.2789 28.9694C15.1317 28.7867 15.9382 28.6064 16.7029 28.4277C15.6041 29.4612 14.8297 31.0632 15.4043 32.593C15.6779 33.3216 16.3943 34.3313 18.2534 35.004C19.92 35.6073 22.2237 35.8481 25.1002 35.7199C25.5205 35.7012 26.0198 35.6385 26.5484 35.5721C28.1098 35.3758 30.0155 35.1367 30.8355 35.9001C30.1052 36.395 29.3351 36.8437 28.5425 37.2345ZM1.24 15.8905L12.842 19.6527C12.6994 20.1789 12.6101 20.7265 12.5809 21.2898C12.2405 21.2956 11.8931 21.2991 11.5385 21.3002H0.838877C0.809999 20.8668 0.794942 20.4311 0.794942 20.0003C0.794942 18.5899 0.949548 17.2151 1.24 15.8905ZM7.87802 5.12621L15.4982 15.5943C15.0643 15.9445 14.6684 16.3398 14.3176 16.7729L4.04823 9.32624C5.11162 7.74454 6.40418 6.32883 7.87802 5.12621ZM36.2833 9.71279L26.5536 16.7681C26.201 16.331 25.8044 15.9356 25.3717 15.587L32.6875 5.5371C34.0759 6.74807 35.289 8.15429 36.2833 9.71279ZM36.3379 21.0255C35.2449 20.5564 34.2457 20.1286 32.6764 20.2443C34.5752 19.1048 36.5533 17.9842 39.2432 18.7771C39.2689 19.1817 39.2834 19.5893 39.2834 20.0003C39.2834 20.5517 39.2595 21.1113 39.2124 21.6633C39.2043 21.758 39.1936 21.8523 39.1841 21.9468C37.9883 21.7327 37.15 21.374 36.3379 21.0255ZM30.2296 17.6839C31.5845 16.8721 32.6547 16.2309 34.0109 16.0083C35.2801 15.8003 36.7322 16.4794 38.2689 17.1989C38.5509 17.3309 38.8413 17.4656 39.1331 17.5971C39.1472 17.7093 39.1597 17.8221 39.1719 17.9349C36.2206 17.1881 34.0389 18.4988 32.1006 19.6641C31.3268 20.1293 30.5765 20.5795 29.8096 20.8898C29.6282 20.9516 29.4426 21.0171 29.2498 21.089C28.8087 21.2223 28.3591 21.3006 27.8934 21.3006H21.0025C25.6967 20.3989 28.2069 18.8957 30.2296 17.6839ZM27.5214 18.3019C27.3724 17.9916 27.2054 17.6937 27.0207 17.4101L36.6977 10.393C37.806 12.2997 38.5951 14.4131 38.9915 16.66C38.8625 16.6 38.7331 16.5399 38.6064 16.4806C36.9551 15.7074 35.395 14.9774 33.8819 15.2254C32.3758 15.4726 31.1916 16.1821 29.8204 17.0036C29.1351 17.4142 28.3919 17.8592 27.5214 18.3019ZM17.628 14.3669C17.103 14.5678 16.605 14.8235 16.1407 15.1269L8.50383 4.63597C10.0334 3.48915 11.7394 2.56499 13.5727 1.91026L17.628 14.3669ZM20.0349 13.8596C19.4667 13.888 18.9143 13.9776 18.3837 14.1208L14.3262 1.65736C16.1306 1.09638 18.048 0.793926 20.0349 0.793399V13.8596ZM22.4817 14.1185C21.9486 13.9758 21.3954 13.8887 20.8298 13.8606V0.810886C22.7967 0.890674 24.6882 1.26624 26.4612 1.89453L22.4817 14.1185ZM23.2379 14.3631L27.2055 2.17563C28.9739 2.88634 30.6125 3.85188 32.0764 5.02656L24.7286 15.1204C24.2615 14.8166 23.7623 14.5622 23.2379 14.3631ZM20.4325 14.643C23.1725 14.643 25.6342 16.204 26.8072 18.6498C24.0979 19.9118 20.1797 21.0756 13.379 21.2719C13.6003 17.581 16.6821 14.643 20.4325 14.643ZM13.0883 18.8985L1.42612 15.1166C1.90772 13.2895 2.65266 11.568 3.61831 9.99521L13.8493 17.4141C13.5455 17.8774 13.2896 18.3745 13.0883 18.8985ZM38.5393 25.302C37.2912 24.496 34.5996 24.0442 31.9571 24.2635C30.3006 24.4011 29.3114 24.3916 28.8291 23.9486C28.4974 23.644 28.3357 23.0739 28.3048 22.0762C28.7129 22.0424 29.1084 21.9601 29.4939 21.8423C29.5019 21.8399 29.5099 21.839 29.5178 21.836C29.5241 21.8336 29.53 21.8316 29.5362 21.8292C29.7174 21.7726 29.8965 21.7082 30.0736 21.6375C33.231 20.5573 34.417 21.0648 36.0239 21.7543C36.8494 22.1086 37.7767 22.5054 39.0897 22.7358C38.9655 23.6039 38.7808 24.462 38.5393 25.302ZM40.0784 20.0003C40.0784 19.481 40.0581 18.9649 40.0191 18.4525C40.019 18.4505 40.0187 18.4487 40.0186 18.4468C39.6548 13.69 37.6247 9.26701 34.209 5.85801C30.424 2.08038 25.3918 5.33003e-07 20.0392 5.33003e-07C14.6866 5.33003e-07 9.65438 2.08038 5.8694 5.85801C2.08442 9.63555 0 14.6581 0 20.0003C0 20.5741 0.0248279 21.1564 0.073956 21.7309C0.0746603 21.7389 0.0771259 21.7461 0.0781824 21.7538C0.0801194 21.767 0.0823218 21.7801 0.0855794 21.7929C0.088925 21.8065 0.0931491 21.8195 0.0978154 21.8324C0.101777 21.8432 0.105827 21.8538 0.110669 21.8641C0.117273 21.8783 0.124669 21.8916 0.132769 21.9048C0.137699 21.9126 0.142542 21.9204 0.148001 21.9279C0.158126 21.942 0.16913 21.9552 0.180928 21.9677C0.186035 21.9731 0.190966 21.9784 0.196249 21.9835C0.209895 21.9965 0.224421 22.0083 0.239741 22.0193C0.244671 22.0228 0.249603 22.0262 0.25471 22.0296C0.27135 22.0404 0.288606 22.0496 0.306743 22.0578C0.311938 22.0602 0.317045 22.0625 0.322327 22.0646C0.340728 22.0719 0.359746 22.0777 0.379291 22.0822C0.385631 22.0837 0.391968 22.0852 0.398395 22.0864C0.416796 22.0897 0.435461 22.0914 0.454567 22.092C0.459761 22.0922 0.464693 22.0936 0.469976 22.0936H11.1058C11.1073 22.0936 11.1086 22.094 11.1101 22.094H11.3096C11.3107 22.094 11.3119 22.0943 11.313 22.0943C11.3466 22.0943 11.3791 22.094 11.4125 22.094H27.5005C27.4824 22.8356 27.3349 23.5171 26.1799 24.3183C26.171 24.3237 26.1628 24.3302 26.1542 24.3362C26.0965 24.3758 26.0373 24.4155 25.9746 24.4557C24.0876 25.6653 20.2073 26.888 14.112 28.1937C7.98121 29.5071 6.89783 31.6983 7.06873 33.3051C7.24173 34.9322 8.84738 36.6277 11.4739 37.9568C13.9478 39.2086 16.9387 39.9437 19.7304 39.995C19.7355 39.9953 19.7404 39.9967 19.7455 39.9968C19.8243 39.9983 19.9031 39.9988 19.9819 39.999C20.002 39.9991 20.0223 40 20.0424 40C20.0443 40 20.046 39.9995 20.0479 39.9995C23.1535 39.9982 26.1298 39.3073 28.8945 37.9459C29.7944 37.5021 30.667 36.9875 31.4878 36.4162C31.5362 36.3826 31.583 36.3469 31.6312 36.3128C31.6448 36.3036 31.659 36.2948 31.6711 36.2841C33.028 35.3173 34.2601 34.1845 35.3396 32.9116C35.3494 32.9013 35.3585 32.8906 35.3671 32.8795C35.4117 32.8265 35.4579 32.7751 35.5021 32.7217L35.5931 32.6109V32.6102C36.2136 31.8496 36.7816 31.0381 37.2828 30.1962C37.7305 29.4434 38.1335 28.6505 38.4806 27.8394C38.7156 27.2886 38.9252 26.7273 39.1048 26.1712C39.1203 26.1374 39.1327 26.1023 39.1383 26.0658C39.5103 24.9006 39.7732 23.6966 39.9244 22.4767C39.9254 22.4712 39.9274 22.4663 39.9282 22.4609C39.9291 22.4543 39.9284 22.448 39.929 22.4415C39.9579 22.2051 39.984 21.9683 40.0045 21.7309C40.0535 21.1564 40.0784 20.5741 40.0784 20.0003Z" fill="var(--fill-0, #202020)"/>
<path id="Vector_3" d="M18.3564 24.3852C18.3564 24.1661 18.1785 23.9884 17.9589 23.9884H0.931789C0.712298 23.9884 0.534363 24.1661 0.534363 24.3852C0.534363 24.6042 0.712298 24.7819 0.931789 24.7819H17.9589C18.1785 24.7819 18.3564 24.6042 18.3564 24.3852Z" fill="var(--fill-0, #202020)"/>
<path id="Vector_4" d="M8.85941 26.7284C8.85941 26.5093 8.68148 26.3316 8.4619 26.3316H1.85839C1.6389 26.3316 1.46088 26.5093 1.46088 26.7284C1.46088 26.9474 1.6389 27.1251 1.85839 27.1251H8.4619C8.68148 27.1251 8.85941 26.9474 8.85941 26.7284Z" fill="var(--fill-0, #202020)"/>
<path id="Vector_5" d="M10.0502 26.3242C9.83073 26.3242 9.65271 26.5017 9.65271 26.7209C9.65271 26.94 9.83073 27.1176 10.0502 27.1176H11.0064C11.226 27.1176 11.4039 26.94 11.4039 26.7209C11.4039 26.5017 11.226 26.3242 11.0064 26.3242H10.0502Z" fill="var(--fill-0, #202020)"/>
<path id="Vector_6" d="M11.6799 32.0635C11.6701 32.0397 11.6578 32.0168 11.6437 31.9947C11.6286 31.9736 11.6127 31.9533 11.5941 31.9348C11.5755 31.9163 11.5553 31.8996 11.5332 31.8854C11.512 31.8713 11.4891 31.859 11.4651 31.8492C11.4405 31.8387 11.4157 31.8316 11.3901 31.8264C11.3389 31.8157 11.2868 31.8157 11.2355 31.8264C11.2099 31.8316 11.1852 31.8387 11.1605 31.8492C11.1366 31.859 11.1137 31.8713 11.0924 31.8854C11.0703 31.8996 11.0501 31.9163 11.0314 31.9348C11.0129 31.9533 10.997 31.9736 10.982 31.9947C10.9679 32.0168 10.9555 32.0397 10.9458 32.0635C10.9362 32.0873 10.9282 32.112 10.9229 32.1376C10.9185 32.1632 10.9158 32.1895 10.9158 32.2151C10.9158 32.2407 10.9185 32.2671 10.9229 32.2927C10.9282 32.3183 10.9362 32.343 10.9458 32.3668C10.9555 32.3906 10.9679 32.4135 10.9829 32.4355C10.997 32.4576 11.0138 32.4778 11.0324 32.4954C11.0501 32.514 11.0703 32.5307 11.0924 32.5449C11.1137 32.5598 11.1366 32.5713 11.1605 32.5819C11.1852 32.5916 11.2099 32.5986 11.2355 32.6039C11.2611 32.6092 11.2868 32.6119 11.3133 32.6119C11.3389 32.6119 11.3645 32.6092 11.3901 32.6039C11.4157 32.5986 11.4405 32.5916 11.4651 32.5819C11.4891 32.5713 11.512 32.5598 11.5332 32.5449C11.5553 32.5307 11.5755 32.514 11.5941 32.4954C11.6118 32.4778 11.6286 32.4576 11.6437 32.4355C11.6578 32.4135 11.6701 32.3906 11.6799 32.3668C11.6896 32.343 11.6975 32.3183 11.7029 32.2927C11.7073 32.2671 11.7099 32.2407 11.7099 32.2151C11.7099 32.1895 11.7073 32.1632 11.7029 32.1376C11.6975 32.112 11.6896 32.0873 11.6799 32.0635Z" fill="var(--fill-0, #202020)"/>
<path id="Vector_7" d="M12.7629 34.7347C12.7523 34.7109 12.7399 34.687 12.7258 34.6659C12.7117 34.6438 12.6948 34.6236 12.6763 34.6059C12.6587 34.5875 12.6374 34.5707 12.6162 34.5566C12.5942 34.5424 12.5712 34.5301 12.5474 34.5196C12.5235 34.5099 12.4988 34.5029 12.4732 34.4975C12.3442 34.4711 12.2065 34.5134 12.1146 34.6059C12.0961 34.6236 12.0792 34.6438 12.0651 34.6659C12.0509 34.687 12.0386 34.7109 12.0289 34.7347C12.0183 34.7584 12.0113 34.7832 12.0059 34.8088C12.0006 34.8343 11.998 34.8607 11.998 34.8863C11.998 34.9903 12.0404 35.0926 12.1146 35.1666C12.1331 35.1851 12.1534 35.2019 12.1746 35.216C12.1967 35.2301 12.2197 35.2424 12.2435 35.2522C12.2673 35.2628 12.2921 35.2697 12.3178 35.2751C12.3434 35.2804 12.3698 35.283 12.3954 35.283C12.4219 35.283 12.4475 35.2804 12.4732 35.2751C12.4988 35.2697 12.5235 35.2628 12.5474 35.2522C12.5712 35.2424 12.5942 35.2301 12.6162 35.216C12.6374 35.2019 12.6587 35.1851 12.6763 35.1666C12.7506 35.0926 12.7929 34.9903 12.7929 34.8863C12.7929 34.8607 12.7903 34.8343 12.785 34.8088C12.7796 34.7832 12.7727 34.7584 12.7629 34.7347Z" fill="var(--fill-0, #202020)"/>
</g>
</svg>
